<svg width="120" height="40" viewBox="0 0 120 40" fill="none" xmlns="http://www.w3.org/2000/svg">
<rect width="120" height="40" rx="8" fill="black"/>
<path d="M13.5 7.5c-.3 0-.5.2-.5.5v24c0 .3.2.5.5.5.1 0 .2 0 .3-.1l14.6-12c.1-.1.1-.3 0-.4L13.8 7.6c-.1-.1-.2-.1-.3-.1z" fill="#EA4335"/>
<path d="M20.5 20l-7-7 14.6-12c.1-.1.2-.1.3-.1.3 0 .5.2.5.5v24c0 .3-.2.5-.5.5-.1 0-.2 0-.3-.1L20.5 20z" fill="#FBBC04"/>
<path d="M28.4 7.6L20.5 20l7.9 7.9c.1.1.2.1.3.1.3 0 .5-.2.5-.5V8c0-.3-.2-.5-.5-.5-.1 0-.2 0-.3.1z" fill="#4285F4"/>
<path d="M13.5 7.5c-.3 0-.5.2-.5.5v24c0 .3.2.5.5.5.1 0 .2 0 .3-.1L20.5 20 13.8 7.6c-.1-.1-.2-.1-.3-.1z" fill="#34A853"/>
<text x="40" y="13" fill="white" font-family="Roboto, sans-serif" font-size="9" font-weight="400">GET IT ON</text>
<text x="40" y="26" fill="white" font-family="Roboto, sans-serif" font-size="16" font-weight="600">Google Play</text>
</svg> 